{
	"asset":{
		"generator":"Khronos glTF Blender I/O v4.2.70",
		"version":"2.0"
	},
	"scene":0,
	"scenes":[
		{
			"name":"Scene",
			"nodes":[
				0,
				1,
				2,
				3,
				4,
				5,
				6,
				7,
				8,
				9,
				10,
				11,
				12,
				13,
				14
			]
		}
	],
	"nodes":[
		{
			"mesh":0,
			"name":"\u80f4\u4f53",
			"rotation":[
				0,
				0,
				-0.7071068286895752,
				0.7071068286895752
			],
			"scale":[
				0.8786277770996094,
				1.118330955505371,
				1
			]
		},
		{
			"mesh":1,
			"name":"\u53f3\u524d\u811a",
			"rotation":[
				0,
				0,
				-1,
				0
			],
			"scale":[
				-0.32391127943992615,
				-0.7502065896987915,
				-0.3187291622161865
			],
			"translation":[
				0.5638797283172607,
				-0.5961435437202454,
				0.6406151056289673
			]
		},
		{
			"mesh":2,
			"name":"\u53f3\u773c",
			"rotation":[
				0,
				0,
				-0.1585153043270111,
				0.9873565435409546
			],
			"scale":[
				-0.09730180352926254,
				-0.08479034900665283,
				-0.09694735705852509
			],
			"translation":[
				2.3037643432617188,
				0.33107367157936096,
				0.38233670592308044
			]
		},
		{
			"mesh":3,
			"name":"\u53f3\u524d\u8089\u7403",
			"rotation":[
				-0.06166166067123413,
				0.9977530837059021,
				-0.025928404182195663,
				0.0037928305100649595
			],
			"scale":[
				-0.21955019235610962,
				-0.0665174052119255,
				-0.21543504297733307
			],
			"translation":[
				2.0379514694213867,
				-1.156866192817688,
				0.6450986862182617
			]
		},
		{
			"mesh":4,
			"name":"\u304a\u9f3b",
			"rotation":[
				0,
				0,
				-0.09833816438913345,
				0.9951530694961548
			],
			"scale":[
				-0.014145431108772755,
				-0.01216164045035839,
				-0.014010460115969181
			],
			"translation":[
				2.5075652599334717,
				0.016211330890655518,
				-0.0001564051490277052
			]
		},
		{
			"mesh":5,
			"name":"\u5de6\u773c",
			"rotation":[
				0,
				0,
				-0.1585153043270111,
				0.9873565435409546
			],
			"scale":[
				-0.09730180352926254,
				-0.08479034900665283,
				-0.09694735705852509
			],
			"translation":[
				2.3037643432617188,
				0.33107367157936096,
				-0.3826500177383423
			]
		},
		{
			"mesh":6,
			"name":"\u53f3\u811a",
			"rotation":[
				-0.09127337485551834,
				-0.045140381902456284,
				-0.2678738534450531,
				0.9580579996109009
			],
			"scale":[
				0.5710034370422363,
				0.7416583299636841,
				0.6096190810203552
			],
			"translation":[
				0.9428123235702515,
				0.05606170743703842,
				-0.04849337786436081
			]
		},
		{
			"mesh":7,
			"name":"\u982d",
			"rotation":[
				0,
				0,
				-0.09833816438913345,
				0.9951530694961548
			],
			"scale":[
				1.0244914293289185,
				0.9367827773094177,
				1.0035018920898438
			],
			"translation":[
				1.8816331624984741,
				0.33679959177970886,
				0
			]
		},
		{
			"mesh":8,
			"name":"\u53f3\u8033",
			"rotation":[
				0.19493596255779266,
				-0.6606535315513611,
				-0.36176714301109314,
				0.6282208561897278
			],
			"scale":[
				1.1571307182312012,
				2,
				1.0236456394195557
			],
			"translation":[
				1.522374153137207,
				0.27099061012268066,
				1.1724015474319458
			]
		},
		{
			"mesh":9,
			"name":"\u5de6\u8033",
			"rotation":[
				-0.23181366920471191,
				0.6868764758110046,
				-0.3204711973667145,
				0.6097223162651062
			],
			"scale":[
				1.1575849056243896,
				2,
				1.0262030363082886
			],
			"translation":[
				1.522374153137207,
				0.27099061012268066,
				-1.1724013090133667
			]
		},
		{
			"mesh":10,
			"name":"\u5de6\u524d\u811a",
			"scale":[
				0.32391127943992615,
				0.7502065896987915,
				0.3187291622161865
			],
			"translation":[
				0.5638797283172607,
				-0.5961435437202454,
				-0.6450990438461304
			]
		},
		{
			"mesh":11,
			"name":"\u5de6\u524d\u8089\u7403",
			"rotation":[
				-0.9977530837059021,
				-0.06166165694594383,
				0.003792831441387534,
				0.025928404182195663
			],
			"scale":[
				0.21955019235610962,
				0.0665174052119255,
				0.21543504297733307
			],
			"translation":[
				2.0379514694213867,
				-1.156866192817688,
				-0.6406149864196777
			]
		},
		{
			"mesh":12,
			"name":"\u53f3\u811a.001",
			"rotation":[
				0.045140378177165985,
				-0.09127339720726013,
				0.9580579996109009,
				0.2678738534450531
			],
			"scale":[
				-0.5710034370422363,
				-0.7416583299636841,
				-0.6096190810203552
			],
			"translation":[
				0.9428123235702515,
				0.05606170743703842,
				0.048493001610040665
			]
		},
		{
			"mesh":13,
			"name":"\u7403",
			"rotation":[
				0.16865776479244232,
				0.1764741837978363,
				-0.26370638608932495,
				0.9332044720649719
			],
			"scale":[
				0.2194635421037674,
				0.04917776957154274,
				0.2191847711801529
			],
			"translation":[
				-1.2667187452316284,
				-1.0811058282852173,
				-0.7414250373840332
			]
		},
		{
			"mesh":14,
			"name":"\u7403.001",
			"rotation":[
				-0.1764741986989975,
				0.16865776479244232,
				0.9332044720649719,
				0.26370638608932495
			],
			"scale":[
				-0.2194635272026062,
				-0.04917777329683304,
				-0.2191847711801529
			],
			"translation":[
				-1.2667187452316284,
				-1.0811058282852173,
				0.7414249777793884
			]
		}
	],
	"materials":[
		{
			"doubleSided":true,
			"name":"\u30de\u30c6\u30ea\u30a2\u30eb",
			"pbrMetallicRoughness":{
				"baseColorFactor":[
					1,
					0.9074232578277588,
					0.23711809515953064,
					1
				],
				"metallicFactor":0,
				"roughnessFactor":0.5
			}
		}
	],
	"meshes":[
		{
			"name":"\u5186\u67f1.001",
			"primitives":[
				{
					"attributes":{
						"POSITION":0,
						"NORMAL":1,
						"TEXCOORD_0":2
					},
					"indices":3,
					"material":0
				}
			]
		},
		{
			"name":"\u5186\u67f1.005",
			"primitives":[
				{
					"attributes":{
						"POSITION":4,
						"NORMAL":5,
						"TEXCOORD_0":6
					},
					"indices":7
				}
			]
		},
		{
			"name":"\u7403.002",
			"primitives":[
				{
					"attributes":{
						"POSITION":8,
						"NORMAL":9,
						"TEXCOORD_0":10
					},
					"indices":11
				}
			]
		},
		{
			"name":"\u7403.003",
			"primitives":[
				{
					"attributes":{
						"POSITION":12,
						"NORMAL":13,
						"TEXCOORD_0":14
					},
					"indices":15
				}
			]
		},
		{
			"name":"\u7403.006",
			"primitives":[
				{
					"attributes":{
						"POSITION":16,
						"NORMAL":17,
						"TEXCOORD_0":18
					},
					"indices":19
				}
			]
		},
		{
			"name":"\u7403.007",
			"primitives":[
				{
					"attributes":{
						"POSITION":20,
						"NORMAL":21,
						"TEXCOORD_0":22
					},
					"indices":11
				}
			]
		},
		{
			"name":"\u5186\u67f1.003",
			"primitives":[
				{
					"attributes":{
						"POSITION":23,
						"NORMAL":24,
						"TEXCOORD_0":25
					},
					"indices":26
				}
			]
		},
		{
			"name":"\u7403.005",
			"primitives":[
				{
					"attributes":{
						"POSITION":27,
						"NORMAL":28,
						"TEXCOORD_0":29
					},
					"indices":30
				}
			]
		},
		{
			"name":"\u5186",
			"primitives":[
				{
					"attributes":{
						"POSITION":31,
						"NORMAL":32,
						"TEXCOORD_0":33
					},
					"indices":34
				}
			]
		},
		{
			"name":"\u5186.001",
			"primitives":[
				{
					"attributes":{
						"POSITION":35,
						"NORMAL":36,
						"TEXCOORD_0":37
					},
					"indices":34
				}
			]
		},
		{
			"name":"\u5186\u67f1.002",
			"primitives":[
				{
					"attributes":{
						"POSITION":38,
						"NORMAL":39,
						"TEXCOORD_0":40
					},
					"indices":7
				}
			]
		},
		{
			"name":"\u7403.004",
			"primitives":[
				{
					"attributes":{
						"POSITION":41,
						"NORMAL":42,
						"TEXCOORD_0":43
					},
					"indices":15
				}
			]
		},
		{
			"name":"\u5186\u67f1.006",
			"primitives":[
				{
					"attributes":{
						"POSITION":44,
						"NORMAL":45,
						"TEXCOORD_0":46
					},
					"indices":26
				}
			]
		},
		{
			"name":"\u7403",
			"primitives":[
				{
					"attributes":{
						"POSITION":47,
						"NORMAL":48,
						"TEXCOORD_0":49
					},
					"indices":50
				}
			]
		},
		{
			"name":"\u7403.001",
			"primitives":[
				{
					"attributes":{
						"POSITION":51,
						"NORMAL":52,
						"TEXCOORD_0":53
					},
					"indices":50
				}
			]
		}
	],
	"accessors":[
		{
			"bufferView":0,
			"componentType":5126,
			"count":314,
			"max":[
				0.8239122629165649,
				1.4625214338302612,
				0.9002295732498169
			],
			"min":[
				-0.9136426448822021,
				-1.5677577257156372,
				-0.9002295732498169
			],
			"type":"VEC3"
		},
		{
			"bufferView":1,
			"componentType":5126,
			"count":314,
			"type":"VEC3"
		},
		{
			"bufferView":2,
			"componentType":5126,
			"count":314,
			"type":"VEC2"
		},
		{
			"bufferView":3,
			"componentType":5123,
			"count":1446,
			"type":"SCALAR"
		},
		{
			"bufferView":4,
			"componentType":5126,
			"count":261,
			"max":[
				5.711283206939697,
				0.7883870005607605,
				1.8616561889648438
			],
			"min":[
				-0.0916585922241211,
				-0.7957371473312378,
				-1.0334750413894653
			],
			"type":"VEC3"
		},
		{
			"bufferView":5,
			"componentType":5126,
			"count":261,
			"type":"VEC3"
		},
		{
			"bufferView":6,
			"componentType":5126,
			"count":261,
			"type":"VEC2"
		},
		{
			"bufferView":7,
			"componentType":5123,
			"count":1140,
			"type":"SCALAR"
		},
		{
			"bufferView":8,
			"componentType":5126,
			"count":559,
			"max":[
				0.9999997019767761,
				1,
				0.9999993443489075
			],
			"min":[
				-0.9999990463256836,
				-1,
				-1
			],
			"type":"VEC3"
		},
		{
			"bufferView":9,
			"componentType":5126,
			"count":559,
			"type":"VEC3"
		},
		{
			"bufferView":10,
			"componentType":5126,
			"count":559,
			"type":"VEC2"
		},
		{
			"bufferView":11,
			"componentType":5123,
			"count":2880,
			"type":"SCALAR"
		},
		{
			"bufferView":12,
			"componentType":5126,
			"count":559,
			"max":[
				0.9999997019767761,
				1,
				0.9999993443489075
			],
			"min":[
				-0.9999990463256836,
				-1,
				-1
			],
			"type":"VEC3"
		},
		{
			"bufferView":13,
			"componentType":5126,
			"count":559,
			"type":"VEC3"
		},
		{
			"bufferView":14,
			"componentType":5126,
			"count":559,
			"type":"VEC2"
		},
		{
			"bufferView":15,
			"componentType":5123,
			"count":2880,
			"type":"SCALAR"
		},
		{
			"bufferView":16,
			"componentType":5126,
			"count":559,
			"max":[
				7.67028284072876,
				6.230013847351074,
				9.850743293762207
			],
			"min":[
				-8.592100143432617,
				-7.673184871673584,
				-9.850743293762207
			],
			"type":"VEC3"
		},
		{
			"bufferView":17,
			"componentType":5126,
			"count":559,
			"type":"VEC3"
		},
		{
			"bufferView":18,
			"componentType":5126,
			"count":559,
			"type":"VEC2"
		},
		{
			"bufferView":19,
			"componentType":5123,
			"count":2880,
			"type":"SCALAR"
		},
		{
			"bufferView":20,
			"componentType":5126,
			"count":559,
			"max":[
				0.9999997019767761,
				1,
				0.9999993443489075
			],
			"min":[
				-0.9999990463256836,
				-1,
				-1
			],
			"type":"VEC3"
		},
		{
			"bufferView":21,
			"componentType":5126,
			"count":559,
			"type":"VEC3"
		},
		{
			"bufferView":22,
			"componentType":5126,
			"count":559,
			"type":"VEC2"
		},
		{
			"bufferView":23,
			"componentType":5126,
			"count":458,
			"max":[
				-1.3915867805480957,
				-0.5841888785362244,
				1.702885627746582
			],
			"min":[
				-3.4742953777313232,
				-3.0275254249572754,
				0.03830307722091675
			],
			"type":"VEC3"
		},
		{
			"bufferView":24,
			"componentType":5126,
			"count":458,
			"type":"VEC3"
		},
		{
			"bufferView":25,
			"componentType":5126,
			"count":458,
			"type":"VEC2"
		},
		{
			"bufferView":26,
			"componentType":5123,
			"count":2484,
			"type":"SCALAR"
		},
		{
			"bufferView":27,
			"componentType":5126,
			"count":559,
			"max":[
				0.7167680859565735,
				0.7602279782295227,
				0.7338908314704895
			],
			"min":[
				-1.2116425037384033,
				-0.7179005146026611,
				-0.7338908314704895
			],
			"type":"VEC3"
		},
		{
			"bufferView":28,
			"componentType":5126,
			"count":559,
			"type":"VEC3"
		},
		{
			"bufferView":29,
			"componentType":5126,
			"count":559,
			"type":"VEC2"
		},
		{
			"bufferView":30,
			"componentType":5123,
			"count":2880,
			"type":"SCALAR"
		},
		{
			"bufferView":31,
			"componentType":5126,
			"count":36,
			"max":[
				0.29011237621307373,
				0.02020251750946045,
				0.34775209426879883
			],
			"min":[
				-0.72114098072052,
				-0.020202696323394775,
				-0.32213878631591797
			],
			"type":"VEC3"
		},
		{
			"bufferView":32,
			"componentType":5126,
			"count":36,
			"type":"VEC3"
		},
		{
			"bufferView":33,
			"componentType":5126,
			"count":36,
			"type":"VEC2"
		},
		{
			"bufferView":34,
			"componentType":5123,
			"count":204,
			"type":"SCALAR"
		},
		{
			"bufferView":35,
			"componentType":5126,
			"count":36,
			"max":[
				0.29011237621307373,
				0.02020251750946045,
				0.34775209426879883
			],
			"min":[
				-0.72114098072052,
				-0.020202696323394775,
				-0.32213878631591797
			],
			"type":"VEC3"
		},
		{
			"bufferView":36,
			"componentType":5126,
			"count":36,
			"type":"VEC3"
		},
		{
			"bufferView":37,
			"componentType":5126,
			"count":36,
			"type":"VEC2"
		},
		{
			"bufferView":38,
			"componentType":5126,
			"count":261,
			"max":[
				5.711283206939697,
				0.7883870005607605,
				1.8616561889648438
			],
			"min":[
				-0.0916585922241211,
				-0.7957371473312378,
				-1.0334750413894653
			],
			"type":"VEC3"
		},
		{
			"bufferView":39,
			"componentType":5126,
			"count":261,
			"type":"VEC3"
		},
		{
			"bufferView":40,
			"componentType":5126,
			"count":261,
			"type":"VEC2"
		},
		{
			"bufferView":41,
			"componentType":5126,
			"count":559,
			"max":[
				0.9999997019767761,
				1,
				0.9999993443489075
			],
			"min":[
				-0.9999990463256836,
				-1,
				-1
			],
			"type":"VEC3"
		},
		{
			"bufferView":42,
			"componentType":5126,
			"count":559,
			"type":"VEC3"
		},
		{
			"bufferView":43,
			"componentType":5126,
			"count":559,
			"type":"VEC2"
		},
		{
			"bufferView":44,
			"componentType":5126,
			"count":458,
			"max":[
				-1.3916624784469604,
				-0.5950320363044739,
				1.7020924091339111
			],
			"min":[
				-3.4701108932495117,
				-3.0274605751037598,
				0.04297740384936333
			],
			"type":"VEC3"
		},
		{
			"bufferView":45,
			"componentType":5126,
			"count":458,
			"type":"VEC3"
		},
		{
			"bufferView":46,
			"componentType":5126,
			"count":458,
			"type":"VEC2"
		},
		{
			"bufferView":47,
			"componentType":5126,
			"count":559,
			"max":[
				0.9999997019767761,
				1,
				0.9999993443489075
			],
			"min":[
				-0.9999990463256836,
				-1,
				-1
			],
			"type":"VEC3"
		},
		{
			"bufferView":48,
			"componentType":5126,
			"count":559,
			"type":"VEC3"
		},
		{
			"bufferView":49,
			"componentType":5126,
			"count":559,
			"type":"VEC2"
		},
		{
			"bufferView":50,
			"componentType":5123,
			"count":2880,
			"type":"SCALAR"
		},
		{
			"bufferView":51,
			"componentType":5126,
			"count":559,
			"max":[
				0.9999997019767761,
				1,
				0.9999993443489075
			],
			"min":[
				-0.9999990463256836,
				-1,
				-1
			],
			"type":"VEC3"
		},
		{
			"bufferView":52,
			"componentType":5126,
			"count":559,
			"type":"VEC3"
		},
		{
			"bufferView":53,
			"componentType":5126,
			"count":559,
			"type":"VEC2"
		}
	],
	"bufferViews":[
		{
			"buffer":0,
			"byteLength":3768,
			"byteOffset":0,
			"target":34962
		},
		{
			"buffer":0,
			"byteLength":3768,
			"byteOffset":3768,
			"target":34962
		},
		{
			"buffer":0,
			"byteLength":2512,
			"byteOffset":7536,
			"target":34962
		},
		{
			"buffer":0,
			"byteLength":2892,
			"byteOffset":10048,
			"target":34963
		},
		{
			"buffer":0,
			"byteLength":3132,
			"byteOffset":12940,
			"target":34962
		},
		{
			"buffer":0,
			"byteLength":3132,
			"byteOffset":16072,
			"target":34962
		},
		{
			"buffer":0,
			"byteLength":2088,
			"byteOffset":19204,
			"target":34962
		},
		{
			"buffer":0,
			"byteLength":2280,
			"byteOffset":21292,
			"target":34963
		},
		{
			"buffer":0,
			"byteLength":6708,
			"byteOffset":23572,
			"target":34962
		},
		{
			"buffer":0,
			"byteLength":6708,
			"byteOffset":30280,
			"target":34962
		},
		{
			"buffer":0,
			"byteLength":4472,
			"byteOffset":36988,
			"target":34962
		},
		{
			"buffer":0,
			"byteLength":5760,
			"byteOffset":41460,
			"target":34963
		},
		{
			"buffer":0,
			"byteLength":6708,
			"byteOffset":47220,
			"target":34962
		},
		{
			"buffer":0,
			"byteLength":6708,
			"byteOffset":53928,
			"target":34962
		},
		{
			"buffer":0,
			"byteLength":4472,
			"byteOffset":60636,
			"target":34962
		},
		{
			"buffer":0,
			"byteLength":5760,
			"byteOffset":65108,
			"target":34963
		},
		{
			"buffer":0,
			"byteLength":6708,
			"byteOffset":70868,
			"target":34962
		},
		{
			"buffer":0,
			"byteLength":6708,
			"byteOffset":77576,
			"target":34962
		},
		{
			"buffer":0,
			"byteLength":4472,
			"byteOffset":84284,
			"target":34962
		},
		{
			"buffer":0,
			"byteLength":5760,
			"byteOffset":88756,
			"target":34963
		},
		{
			"buffer":0,
			"byteLength":6708,
			"byteOffset":94516,
			"target":34962
		},
		{
			"buffer":0,
			"byteLength":6708,
			"byteOffset":101224,
			"target":34962
		},
		{
			"buffer":0,
			"byteLength":4472,
			"byteOffset":107932,
			"target":34962
		},
		{
			"buffer":0,
			"byteLength":5496,
			"byteOffset":112404,
			"target":34962
		},
		{
			"buffer":0,
			"byteLength":5496,
			"byteOffset":117900,
			"target":34962
		},
		{
			"buffer":0,
			"byteLength":3664,
			"byteOffset":123396,
			"target":34962
		},
		{
			"buffer":0,
			"byteLength":4968,
			"byteOffset":127060,
			"target":34963
		},
		{
			"buffer":0,
			"byteLength":6708,
			"byteOffset":132028,
			"target":34962
		},
		{
			"buffer":0,
			"byteLength":6708,
			"byteOffset":138736,
			"target":34962
		},
		{
			"buffer":0,
			"byteLength":4472,
			"byteOffset":145444,
			"target":34962
		},
		{
			"buffer":0,
			"byteLength":5760,
			"byteOffset":149916,
			"target":34963
		},
		{
			"buffer":0,
			"byteLength":432,
			"byteOffset":155676,
			"target":34962
		},
		{
			"buffer":0,
			"byteLength":432,
			"byteOffset":156108,
			"target":34962
		},
		{
			"buffer":0,
			"byteLength":288,
			"byteOffset":156540,
			"target":34962
		},
		{
			"buffer":0,
			"byteLength":408,
			"byteOffset":156828,
			"target":34963
		},
		{
			"buffer":0,
			"byteLength":432,
			"byteOffset":157236,
			"target":34962
		},
		{
			"buffer":0,
			"byteLength":432,
			"byteOffset":157668,
			"target":34962
		},
		{
			"buffer":0,
			"byteLength":288,
			"byteOffset":158100,
			"target":34962
		},
		{
			"buffer":0,
			"byteLength":3132,
			"byteOffset":158388,
			"target":34962
		},
		{
			"buffer":0,
			"byteLength":3132,
			"byteOffset":161520,
			"target":34962
		},
		{
			"buffer":0,
			"byteLength":2088,
			"byteOffset":164652,
			"target":34962
		},
		{
			"buffer":0,
			"byteLength":6708,
			"byteOffset":166740,
			"target":34962
		},
		{
			"buffer":0,
			"byteLength":6708,
			"byteOffset":173448,
			"target":34962
		},
		{
			"buffer":0,
			"byteLength":4472,
			"byteOffset":180156,
			"target":34962
		},
		{
			"buffer":0,
			"byteLength":5496,
			"byteOffset":184628,
			"target":34962
		},
		{
			"buffer":0,
			"byteLength":5496,
			"byteOffset":190124,
			"target":34962
		},
		{
			"buffer":0,
			"byteLength":3664,
			"byteOffset":195620,
			"target":34962
		},
		{
			"buffer":0,
			"byteLength":6708,
			"byteOffset":199284,
			"target":34962
		},
		{
			"buffer":0,
			"byteLength":6708,
			"byteOffset":205992,
			"target":34962
		},
		{
			"buffer":0,
			"byteLength":4472,
			"byteOffset":212700,
			"target":34962
		},
		{
			"buffer":0,
			"byteLength":5760,
			"byteOffset":217172,
			"target":34963
		},
		{
			"buffer":0,
			"byteLength":6708,
			"byteOffset":222932,
			"target":34962
		},
		{
			"buffer":0,
			"byteLength":6708,
			"byteOffset":229640,
			"target":34962
		},
		{
			"buffer":0,
			"byteLength":4472,
			"byteOffset":236348,
			"target":34962
		}
	],
	"buffers":[
		{
			"byteLength":240820,
			"uri":"momijimodoki.bin"
		}
	]
}
