{
	"asset":{
		"generator":"Khronos glTF Blender I/O v4.2.70",
		"version":"2.0"
	},
	"scene":0,
	"scenes":[
		{
			"name":"Scene",
			"nodes":[
				0,
				1,
				2,
				3,
				4,
				5,
				6,
				7
			]
		}
	],
	"nodes":[
		{
			"mesh":0,
			"name":"\u5186\u67f1",
			"scale":[
				1,
				0.3653826415538788,
				1
			]
		},
		{
			"mesh":1,
			"name":"\u5186"
		},
		{
			"name":"\u30a8\u30f3\u30d7\u30c6\u30a3",
			"rotation":[
				-0.0005108395125716925,
				0.15633879601955414,
				-0.00010922305227722973,
				0.9877033829689026
			]
		},
		{
			"mesh":2,
			"name":"\u30d9\u30b8\u30a8\u30ab\u30fc\u30d6"
		},
		{
			"name":"\u30a8\u30f3\u30d7\u30c6\u30a3.001",
			"rotation":[
				0,
				0.38219401240348816,
				0,
				0.9240822196006775
			]
		},
		{
			"mesh":3,
			"name":"\u5186.001",
			"scale":[
				1.4067983627319336,
				1.4067983627319336,
				1.4067983627319336
			],
			"translation":[
				0,
				-0.18109838664531708,
				0
			]
		},
		{
			"mesh":4,
			"name":"\u5186.002",
			"rotation":[
				0,
				-0.05364309623837471,
				0,
				0.9985601902008057
			],
			"scale":[
				1.4349255561828613,
				0.45590856671333313,
				1.4349255561828613
			],
			"translation":[
				0,
				-0.23629285395145416,
				0
			]
		},
		{
			"mesh":5,
			"name":"\u5186.003"
		}
	],
	"materials":[
		{
			"doubleSided":true,
			"name":"\u767d",
			"pbrMetallicRoughness":{
				"baseColorFactor":[
					0.8001724481582642,
					0.7709540724754333,
					0.7201551795005798,
					1
				],
				"metallicFactor":0,
				"roughnessFactor":0.44999998807907104
			}
		},
		{
			"doubleSided":true,
			"name":"\u8d64",
			"pbrMetallicRoughness":{
				"baseColorFactor":[
					0.8000860214233398,
					0.040449295192956924,
					0.04000430926680565,
					1
				],
				"metallicFactor":0,
				"roughnessFactor":0.30000001192092896
			}
		},
		{
			"doubleSided":true,
			"name":"\u30d4\u30f3\u30af",
			"pbrMetallicRoughness":{
				"baseColorFactor":[
					0.8002276420593262,
					0.5655081272125244,
					0.5601593255996704,
					1
				],
				"metallicFactor":0,
				"roughnessFactor":0.4000000059604645
			}
		},
		{
			"doubleSided":true,
			"name":"\u91d1",
			"pbrMetallicRoughness":{
				"baseColorFactor":[
					0.9241658449172974,
					0.5520431995391846,
					0.045514799654483795,
					1
				],
				"roughnessFactor":0.20000000298023224
			}
		}
	],
	"meshes":[
		{
			"name":"\u5186\u67f1.002",
			"primitives":[
				{
					"attributes":{
						"POSITION":0,
						"NORMAL":1,
						"TEXCOORD_0":2
					},
					"indices":3,
					"material":0
				}
			]
		},
		{
			"name":"\u5186.001",
			"primitives":[
				{
					"attributes":{
						"POSITION":4,
						"NORMAL":5,
						"TEXCOORD_0":6
					},
					"indices":7,
					"material":0
				}
			]
		},
		{
			"name":"Mesh.001",
			"primitives":[
				{
					"attributes":{
						"POSITION":8,
						"NORMAL":9
					},
					"indices":10,
					"material":1
				}
			]
		},
		{
			"name":"\u5186",
			"primitives":[
				{
					"attributes":{
						"POSITION":11,
						"NORMAL":12,
						"TEXCOORD_0":13
					},
					"indices":14,
					"material":2
				}
			]
		},
		{
			"name":"\u5186.002",
			"primitives":[
				{
					"attributes":{
						"POSITION":15,
						"NORMAL":16,
						"TEXCOORD_0":17
					},
					"indices":18,
					"material":3
				}
			]
		},
		{
			"name":"\u5186.003",
			"primitives":[
				{
					"attributes":{
						"POSITION":19,
						"NORMAL":20,
						"TEXCOORD_0":21
					},
					"indices":22,
					"material":0
				}
			]
		}
	],
	"accessors":[
		{
			"bufferView":0,
			"componentType":5126,
			"count":130,
			"max":[
				1,
				1,
				1
			],
			"min":[
				-1,
				-1,
				-1
			],
			"type":"VEC3"
		},
		{
			"bufferView":1,
			"componentType":5126,
			"count":130,
			"type":"VEC3"
		},
		{
			"bufferView":2,
			"componentType":5126,
			"count":130,
			"type":"VEC2"
		},
		{
			"bufferView":3,
			"componentType":5123,
			"count":372,
			"type":"SCALAR"
		},
		{
			"bufferView":4,
			"componentType":5126,
			"count":65,
			"max":[
				1.0397521257400513,
				0.652533233165741,
				0.19494614005088806
			],
			"min":[
				0.6498598456382751,
				0.3506230115890503,
				-0.1949460506439209
			],
			"type":"VEC3"
		},
		{
			"bufferView":5,
			"componentType":5126,
			"count":65,
			"type":"VEC3"
		},
		{
			"bufferView":6,
			"componentType":5126,
			"count":65,
			"type":"VEC2"
		},
		{
			"bufferView":7,
			"componentType":5123,
			"count":378,
			"type":"SCALAR"
		},
		{
			"bufferView":8,
			"componentType":5126,
			"count":5090,
			"max":[
				0.6354325413703918,
				0.711144208908081,
				0.15421181917190552
			],
			"min":[
				0.3270088732242584,
				0.3265528678894043,
				-0.1542118489742279
			],
			"type":"VEC3"
		},
		{
			"bufferView":9,
			"componentType":5126,
			"count":5090,
			"type":"VEC3"
		},
		{
			"bufferView":10,
			"componentType":5123,
			"count":9924,
			"type":"SCALAR"
		},
		{
			"bufferView":11,
			"componentType":5126,
			"count":96,
			"max":[
				1.0915409326553345,
				-0.008049163967370987,
				1.0915409326553345
			],
			"min":[
				-1.0915409326553345,
				-0.11174026876688004,
				-1.0915409326553345
			],
			"type":"VEC3"
		},
		{
			"bufferView":12,
			"componentType":5126,
			"count":96,
			"type":"VEC3"
		},
		{
			"bufferView":13,
			"componentType":5126,
			"count":96,
			"type":"VEC2"
		},
		{
			"bufferView":14,
			"componentType":5123,
			"count":474,
			"type":"SCALAR"
		},
		{
			"bufferView":15,
			"componentType":5126,
			"count":64,
			"max":[
				0.9968011975288391,
				0.06923140585422516,
				0.9968011975288391
			],
			"min":[
				-0.9968011975288391,
				0.06247234344482422,
				-0.9968011975288391
			],
			"type":"VEC3"
		},
		{
			"bufferView":16,
			"componentType":5126,
			"count":64,
			"type":"VEC3"
		},
		{
			"bufferView":17,
			"componentType":5126,
			"count":64,
			"type":"VEC2"
		},
		{
			"bufferView":18,
			"componentType":5123,
			"count":192,
			"type":"SCALAR"
		},
		{
			"bufferView":19,
			"componentType":5126,
			"count":58,
			"max":[
				1.1692566871643066,
				-0.14420057833194733,
				0.2354249656200409
			],
			"min":[
				0.9233096837997437,
				-0.38626211881637573,
				-0.2207736372947693
			],
			"type":"VEC3"
		},
		{
			"bufferView":20,
			"componentType":5126,
			"count":58,
			"type":"VEC3"
		},
		{
			"bufferView":21,
			"componentType":5126,
			"count":58,
			"type":"VEC2"
		},
		{
			"bufferView":22,
			"componentType":5123,
			"count":336,
			"type":"SCALAR"
		}
	],
	"bufferViews":[
		{
			"buffer":0,
			"byteLength":1560,
			"byteOffset":0,
			"target":34962
		},
		{
			"buffer":0,
			"byteLength":1560,
			"byteOffset":1560,
			"target":34962
		},
		{
			"buffer":0,
			"byteLength":1040,
			"byteOffset":3120,
			"target":34962
		},
		{
			"buffer":0,
			"byteLength":744,
			"byteOffset":4160,
			"target":34963
		},
		{
			"buffer":0,
			"byteLength":780,
			"byteOffset":4904,
			"target":34962
		},
		{
			"buffer":0,
			"byteLength":780,
			"byteOffset":5684,
			"target":34962
		},
		{
			"buffer":0,
			"byteLength":520,
			"byteOffset":6464,
			"target":34962
		},
		{
			"buffer":0,
			"byteLength":756,
			"byteOffset":6984,
			"target":34963
		},
		{
			"buffer":0,
			"byteLength":61080,
			"byteOffset":7740,
			"target":34962
		},
		{
			"buffer":0,
			"byteLength":61080,
			"byteOffset":68820,
			"target":34962
		},
		{
			"buffer":0,
			"byteLength":19848,
			"byteOffset":129900,
			"target":34963
		},
		{
			"buffer":0,
			"byteLength":1152,
			"byteOffset":149748,
			"target":34962
		},
		{
			"buffer":0,
			"byteLength":1152,
			"byteOffset":150900,
			"target":34962
		},
		{
			"buffer":0,
			"byteLength":768,
			"byteOffset":152052,
			"target":34962
		},
		{
			"buffer":0,
			"byteLength":948,
			"byteOffset":152820,
			"target":34963
		},
		{
			"buffer":0,
			"byteLength":768,
			"byteOffset":153768,
			"target":34962
		},
		{
			"buffer":0,
			"byteLength":768,
			"byteOffset":154536,
			"target":34962
		},
		{
			"buffer":0,
			"byteLength":512,
			"byteOffset":155304,
			"target":34962
		},
		{
			"buffer":0,
			"byteLength":384,
			"byteOffset":155816,
			"target":34963
		},
		{
			"buffer":0,
			"byteLength":696,
			"byteOffset":156200,
			"target":34962
		},
		{
			"buffer":0,
			"byteLength":696,
			"byteOffset":156896,
			"target":34962
		},
		{
			"buffer":0,
			"byteLength":464,
			"byteOffset":157592,
			"target":34962
		},
		{
			"buffer":0,
			"byteLength":672,
			"byteOffset":158056,
			"target":34963
		}
	],
	"buffers":[
		{
			"byteLength":158728,
			"uri":"short_cake.bin"
		}
	]
}
