{
	"asset":{
		"generator":"Khronos glTF Blender I/O v4.2.70",
		"version":"2.0"
	},
	"scene":0,
	"scenes":[
		{
			"name":"Scene",
			"nodes":[
				0,
				1,
				2,
				3,
				4,
				5,
				6,
				7
			]
		}
	],
	"nodes":[
		{
			"mesh":0,
			"name":"\u80f4\u4f53",
			"rotation":[
				0,
				0,
				-0.7071068286895752,
				0.7071068286895752
			],
			"scale":[
				0.8786277770996094,
				1.118330955505371,
				1
			]
		},
		{
			"mesh":1,
			"name":"\u53f3\u524d\u811a",
			"rotation":[
				0,
				0,
				-1,
				0
			],
			"scale":[
				-0.32391127943992615,
				-0.7502065896987915,
				-0.3187291622161865
			],
			"translation":[
				0.5638797283172607,
				-0.5961435437202454,
				0.6406151056289673
			]
		},
		{
			"mesh":2,
			"name":"\u53f3\u811a",
			"rotation":[
				-0.09127337485551834,
				-0.045140381902456284,
				-0.2678738534450531,
				0.9580579996109009
			],
			"scale":[
				0.5710034370422363,
				0.7416583299636841,
				0.6096190810203552
			],
			"translation":[
				0.9428123235702515,
				0.05606170743703842,
				-0.04849337786436081
			]
		},
		{
			"mesh":3,
			"name":"\u982d",
			"rotation":[
				0,
				0,
				-0.09833816438913345,
				0.9951530694961548
			],
			"scale":[
				1.0244914293289185,
				0.9367827773094177,
				1.0035018920898438
			],
			"translation":[
				1.8816331624984741,
				0.33679959177970886,
				0
			]
		},
		{
			"mesh":4,
			"name":"\u53f3\u8033",
			"rotation":[
				0.19493596255779266,
				-0.6606535315513611,
				-0.36176714301109314,
				0.6282208561897278
			],
			"scale":[
				1.1571307182312012,
				1.1462969779968262,
				1.0236456394195557
			],
			"translation":[
				1.522374153137207,
				0.27099061012268066,
				1.1524015665054321
			]
		},
		{
			"mesh":5,
			"name":"\u5de6\u8033",
			"rotation":[
				0.6868764758110046,
				0.23181374371051788,
				0.6097222566604614,
				0.32047125697135925
			],
			"scale":[
				-1.1575849056243896,
				-1.1426399946212769,
				-1.0262030363082886
			],
			"translation":[
				1.522374153137207,
				0.27099061012268066,
				-1.152401328086853
			]
		},
		{
			"mesh":6,
			"name":"\u5de6\u524d\u811a",
			"scale":[
				0.32391127943992615,
				0.7502065896987915,
				0.3187291622161865
			],
			"translation":[
				0.5638797283172607,
				-0.5961435437202454,
				-0.6450990438461304
			]
		},
		{
			"mesh":7,
			"name":"\u5de6\u811a",
			"rotation":[
				0.045140378177165985,
				-0.09127339720726013,
				0.9580579996109009,
				0.2678738534450531
			],
			"scale":[
				-0.5710034370422363,
				-0.7416583299636841,
				-0.6096190810203552
			],
			"translation":[
				0.9428123235702515,
				0.05606170743703842,
				0.048493001610040665
			]
		}
	],
	"animations":[
		{
			"channels":[
				{
					"sampler":0,
					"target":{
						"node":0,
						"path":"translation"
					}
				},
				{
					"sampler":1,
					"target":{
						"node":0,
						"path":"rotation"
					}
				},
				{
					"sampler":2,
					"target":{
						"node":0,
						"path":"scale"
					}
				}
			],
			"name":"\u80f4\u4f53\u30a2\u30af\u30b7\u30e7\u30f3",
			"samplers":[
				{
					"input":29,
					"interpolation":"LINEAR",
					"output":30
				},
				{
					"input":29,
					"interpolation":"LINEAR",
					"output":31
				},
				{
					"input":32,
					"interpolation":"STEP",
					"output":33
				}
			]
		},
		{
			"channels":[
				{
					"sampler":0,
					"target":{
						"node":1,
						"path":"translation"
					}
				},
				{
					"sampler":1,
					"target":{
						"node":1,
						"path":"rotation"
					}
				},
				{
					"sampler":2,
					"target":{
						"node":1,
						"path":"scale"
					}
				}
			],
			"name":"\u53f3\u524d\u811a\u30a2\u30af\u30b7\u30e7\u30f3",
			"samplers":[
				{
					"input":29,
					"interpolation":"LINEAR",
					"output":34
				},
				{
					"input":29,
					"interpolation":"LINEAR",
					"output":35
				},
				{
					"input":32,
					"interpolation":"STEP",
					"output":36
				}
			]
		},
		{
			"channels":[
				{
					"sampler":0,
					"target":{
						"node":2,
						"path":"translation"
					}
				},
				{
					"sampler":1,
					"target":{
						"node":2,
						"path":"rotation"
					}
				},
				{
					"sampler":2,
					"target":{
						"node":2,
						"path":"scale"
					}
				}
			],
			"name":"\u53f3\u811a\u30a2\u30af\u30b7\u30e7\u30f3",
			"samplers":[
				{
					"input":29,
					"interpolation":"LINEAR",
					"output":37
				},
				{
					"input":29,
					"interpolation":"LINEAR",
					"output":38
				},
				{
					"input":29,
					"interpolation":"LINEAR",
					"output":39
				}
			]
		},
		{
			"channels":[
				{
					"sampler":0,
					"target":{
						"node":3,
						"path":"translation"
					}
				},
				{
					"sampler":1,
					"target":{
						"node":3,
						"path":"rotation"
					}
				},
				{
					"sampler":2,
					"target":{
						"node":3,
						"path":"scale"
					}
				}
			],
			"name":"\u982d\u30a2\u30af\u30b7\u30e7\u30f3",
			"samplers":[
				{
					"input":29,
					"interpolation":"LINEAR",
					"output":40
				},
				{
					"input":29,
					"interpolation":"LINEAR",
					"output":41
				},
				{
					"input":32,
					"interpolation":"STEP",
					"output":42
				}
			]
		},
		{
			"channels":[
				{
					"sampler":0,
					"target":{
						"node":4,
						"path":"translation"
					}
				},
				{
					"sampler":1,
					"target":{
						"node":4,
						"path":"rotation"
					}
				},
				{
					"sampler":2,
					"target":{
						"node":4,
						"path":"scale"
					}
				}
			],
			"name":"\u53f3\u8033\u30a2\u30af\u30b7\u30e7\u30f3",
			"samplers":[
				{
					"input":29,
					"interpolation":"LINEAR",
					"output":43
				},
				{
					"input":29,
					"interpolation":"LINEAR",
					"output":44
				},
				{
					"input":32,
					"interpolation":"STEP",
					"output":45
				}
			]
		},
		{
			"channels":[
				{
					"sampler":0,
					"target":{
						"node":5,
						"path":"translation"
					}
				},
				{
					"sampler":1,
					"target":{
						"node":5,
						"path":"rotation"
					}
				},
				{
					"sampler":2,
					"target":{
						"node":5,
						"path":"scale"
					}
				}
			],
			"name":"\u5de6\u8033\u30a2\u30af\u30b7\u30e7\u30f3",
			"samplers":[
				{
					"input":29,
					"interpolation":"LINEAR",
					"output":46
				},
				{
					"input":29,
					"interpolation":"LINEAR",
					"output":47
				},
				{
					"input":32,
					"interpolation":"STEP",
					"output":48
				}
			]
		},
		{
			"channels":[
				{
					"sampler":0,
					"target":{
						"node":6,
						"path":"translation"
					}
				},
				{
					"sampler":1,
					"target":{
						"node":6,
						"path":"rotation"
					}
				},
				{
					"sampler":2,
					"target":{
						"node":6,
						"path":"scale"
					}
				}
			],
			"name":"\u5de6\u524d\u811a\u30a2\u30af\u30b7\u30e7\u30f3",
			"samplers":[
				{
					"input":29,
					"interpolation":"LINEAR",
					"output":49
				},
				{
					"input":29,
					"interpolation":"LINEAR",
					"output":50
				},
				{
					"input":32,
					"interpolation":"STEP",
					"output":51
				}
			]
		},
		{
			"channels":[
				{
					"sampler":0,
					"target":{
						"node":7,
						"path":"translation"
					}
				},
				{
					"sampler":1,
					"target":{
						"node":7,
						"path":"rotation"
					}
				},
				{
					"sampler":2,
					"target":{
						"node":7,
						"path":"scale"
					}
				}
			],
			"name":"\u53f3\u811a.001\u30a2\u30af\u30b7\u30e7\u30f3",
			"samplers":[
				{
					"input":29,
					"interpolation":"LINEAR",
					"output":52
				},
				{
					"input":29,
					"interpolation":"LINEAR",
					"output":53
				},
				{
					"input":29,
					"interpolation":"LINEAR",
					"output":54
				}
			]
		}
	],
	"meshes":[
		{
			"name":"\u5186\u67f1.001",
			"primitives":[
				{
					"attributes":{
						"POSITION":0,
						"NORMAL":1,
						"TEXCOORD_0":2
					},
					"indices":3
				}
			]
		},
		{
			"name":"\u5186\u67f1.005",
			"primitives":[
				{
					"attributes":{
						"POSITION":4,
						"NORMAL":5,
						"TEXCOORD_0":6
					},
					"indices":7
				}
			]
		},
		{
			"name":"\u5186\u67f1.003",
			"primitives":[
				{
					"attributes":{
						"POSITION":8,
						"NORMAL":9,
						"TEXCOORD_0":10
					},
					"indices":11
				}
			]
		},
		{
			"name":"\u7403.005",
			"primitives":[
				{
					"attributes":{
						"POSITION":12,
						"NORMAL":13,
						"TEXCOORD_0":14
					},
					"indices":15
				}
			]
		},
		{
			"name":"\u5186",
			"primitives":[
				{
					"attributes":{
						"POSITION":16,
						"NORMAL":17,
						"TEXCOORD_0":18
					},
					"indices":19
				}
			]
		},
		{
			"name":"\u5186.001",
			"primitives":[
				{
					"attributes":{
						"POSITION":20,
						"NORMAL":21,
						"TEXCOORD_0":22
					},
					"indices":19
				}
			]
		},
		{
			"name":"\u5186\u67f1.002",
			"primitives":[
				{
					"attributes":{
						"POSITION":23,
						"NORMAL":24,
						"TEXCOORD_0":25
					},
					"indices":7
				}
			]
		},
		{
			"name":"\u5186\u67f1.006",
			"primitives":[
				{
					"attributes":{
						"POSITION":26,
						"NORMAL":27,
						"TEXCOORD_0":28
					},
					"indices":11
				}
			]
		}
	],
	"accessors":[
		{
			"bufferView":0,
			"componentType":5126,
			"count":314,
			"max":[
				0.8239122629165649,
				1.4625214338302612,
				0.9002295732498169
			],
			"min":[
				-0.9136426448822021,
				-1.5677577257156372,
				-0.9002295732498169
			],
			"type":"VEC3"
		},
		{
			"bufferView":1,
			"componentType":5126,
			"count":314,
			"type":"VEC3"
		},
		{
			"bufferView":2,
			"componentType":5126,
			"count":314,
			"type":"VEC2"
		},
		{
			"bufferView":3,
			"componentType":5123,
			"count":1446,
			"type":"SCALAR"
		},
		{
			"bufferView":4,
			"componentType":5126,
			"count":820,
			"max":[
				5.711283206939697,
				0.7883870005607605,
				1.8616561889648438
			],
			"min":[
				-0.0916585922241211,
				-0.8435155153274536,
				-1.0334750413894653
			],
			"type":"VEC3"
		},
		{
			"bufferView":5,
			"componentType":5126,
			"count":820,
			"type":"VEC3"
		},
		{
			"bufferView":6,
			"componentType":5126,
			"count":820,
			"type":"VEC2"
		},
		{
			"bufferView":7,
			"componentType":5123,
			"count":4020,
			"type":"SCALAR"
		},
		{
			"bufferView":8,
			"componentType":5126,
			"count":1017,
			"max":[
				-1.3915867805480957,
				-0.5841888785362244,
				1.702885627746582
			],
			"min":[
				-3.4742953777313232,
				-3.0725107192993164,
				0.03830307722091675
			],
			"type":"VEC3"
		},
		{
			"bufferView":9,
			"componentType":5126,
			"count":1017,
			"type":"VEC3"
		},
		{
			"bufferView":10,
			"componentType":5126,
			"count":1017,
			"type":"VEC2"
		},
		{
			"bufferView":11,
			"componentType":5123,
			"count":5364,
			"type":"SCALAR"
		},
		{
			"bufferView":12,
			"componentType":5126,
			"count":2236,
			"max":[
				0.7790319323539734,
				0.7602279782295227,
				0.7338908314704895
			],
			"min":[
				-1.2116425037384033,
				-0.7179005146026611,
				-0.7338908314704895
			],
			"type":"VEC3"
		},
		{
			"bufferView":13,
			"componentType":5126,
			"count":2236,
			"type":"VEC3"
		},
		{
			"bufferView":14,
			"componentType":5126,
			"count":2236,
			"type":"VEC2"
		},
		{
			"bufferView":15,
			"componentType":5123,
			"count":11520,
			"type":"SCALAR"
		},
		{
			"bufferView":16,
			"componentType":5126,
			"count":36,
			"max":[
				0.30645298957824707,
				0.036076709628105164,
				0.3646347224712372
			],
			"min":[
				-0.7370151877403259,
				-0.03607688844203949,
				-0.3383583724498749
			],
			"type":"VEC3"
		},
		{
			"bufferView":17,
			"componentType":5126,
			"count":36,
			"type":"VEC3"
		},
		{
			"bufferView":18,
			"componentType":5126,
			"count":36,
			"type":"VEC2"
		},
		{
			"bufferView":19,
			"componentType":5123,
			"count":204,
			"type":"SCALAR"
		},
		{
			"bufferView":20,
			"componentType":5126,
			"count":36,
			"max":[
				0.30645298957824707,
				0.036076709628105164,
				0.3646347224712372
			],
			"min":[
				-0.7370151877403259,
				-0.03607688844203949,
				-0.3383583724498749
			],
			"type":"VEC3"
		},
		{
			"bufferView":21,
			"componentType":5126,
			"count":36,
			"type":"VEC3"
		},
		{
			"bufferView":22,
			"componentType":5126,
			"count":36,
			"type":"VEC2"
		},
		{
			"bufferView":23,
			"componentType":5126,
			"count":820,
			"max":[
				5.711283206939697,
				0.7883870005607605,
				1.8616561889648438
			],
			"min":[
				-0.0916585922241211,
				-0.8435155153274536,
				-1.0334750413894653
			],
			"type":"VEC3"
		},
		{
			"bufferView":24,
			"componentType":5126,
			"count":820,
			"type":"VEC3"
		},
		{
			"bufferView":25,
			"componentType":5126,
			"count":820,
			"type":"VEC2"
		},
		{
			"bufferView":26,
			"componentType":5126,
			"count":1017,
			"max":[
				-1.3916624784469604,
				-0.5950320363044739,
				1.7020924091339111
			],
			"min":[
				-3.4701108932495117,
				-3.0725107192993164,
				0.04297740384936333
			],
			"type":"VEC3"
		},
		{
			"bufferView":27,
			"componentType":5126,
			"count":1017,
			"type":"VEC3"
		},
		{
			"bufferView":28,
			"componentType":5126,
			"count":1017,
			"type":"VEC2"
		},
		{
			"bufferView":29,
			"componentType":5126,
			"count":78,
			"max":[
				3.2083333333333335
			],
			"min":[
				0
			],
			"type":"SCALAR"
		},
		{
			"bufferView":30,
			"componentType":5126,
			"count":78,
			"type":"VEC3"
		},
		{
			"bufferView":31,
			"componentType":5126,
			"count":78,
			"type":"VEC4"
		},
		{
			"bufferView":32,
			"componentType":5126,
			"count":2,
			"max":[
				3.2083333333333335
			],
			"min":[
				0
			],
			"type":"SCALAR"
		},
		{
			"bufferView":33,
			"componentType":5126,
			"count":2,
			"type":"VEC3"
		},
		{
			"bufferView":34,
			"componentType":5126,
			"count":78,
			"type":"VEC3"
		},
		{
			"bufferView":35,
			"componentType":5126,
			"count":78,
			"type":"VEC4"
		},
		{
			"bufferView":36,
			"componentType":5126,
			"count":2,
			"type":"VEC3"
		},
		{
			"bufferView":37,
			"componentType":5126,
			"count":78,
			"type":"VEC3"
		},
		{
			"bufferView":38,
			"componentType":5126,
			"count":78,
			"type":"VEC4"
		},
		{
			"bufferView":39,
			"componentType":5126,
			"count":78,
			"type":"VEC3"
		},
		{
			"bufferView":40,
			"componentType":5126,
			"count":78,
			"type":"VEC3"
		},
		{
			"bufferView":41,
			"componentType":5126,
			"count":78,
			"type":"VEC4"
		},
		{
			"bufferView":42,
			"componentType":5126,
			"count":2,
			"type":"VEC3"
		},
		{
			"bufferView":43,
			"componentType":5126,
			"count":78,
			"type":"VEC3"
		},
		{
			"bufferView":44,
			"componentType":5126,
			"count":78,
			"type":"VEC4"
		},
		{
			"bufferView":45,
			"componentType":5126,
			"count":2,
			"type":"VEC3"
		},
		{
			"bufferView":46,
			"componentType":5126,
			"count":78,
			"type":"VEC3"
		},
		{
			"bufferView":47,
			"componentType":5126,
			"count":78,
			"type":"VEC4"
		},
		{
			"bufferView":48,
			"componentType":5126,
			"count":2,
			"type":"VEC3"
		},
		{
			"bufferView":49,
			"componentType":5126,
			"count":78,
			"type":"VEC3"
		},
		{
			"bufferView":50,
			"componentType":5126,
			"count":78,
			"type":"VEC4"
		},
		{
			"bufferView":51,
			"componentType":5126,
			"count":2,
			"type":"VEC3"
		},
		{
			"bufferView":52,
			"componentType":5126,
			"count":78,
			"type":"VEC3"
		},
		{
			"bufferView":53,
			"componentType":5126,
			"count":78,
			"type":"VEC4"
		},
		{
			"bufferView":54,
			"componentType":5126,
			"count":78,
			"type":"VEC3"
		}
	],
	"bufferViews":[
		{
			"buffer":0,
			"byteLength":3768,
			"byteOffset":0,
			"target":34962
		},
		{
			"buffer":0,
			"byteLength":3768,
			"byteOffset":3768,
			"target":34962
		},
		{
			"buffer":0,
			"byteLength":2512,
			"byteOffset":7536,
			"target":34962
		},
		{
			"buffer":0,
			"byteLength":2892,
			"byteOffset":10048,
			"target":34963
		},
		{
			"buffer":0,
			"byteLength":9840,
			"byteOffset":12940,
			"target":34962
		},
		{
			"buffer":0,
			"byteLength":9840,
			"byteOffset":22780,
			"target":34962
		},
		{
			"buffer":0,
			"byteLength":6560,
			"byteOffset":32620,
			"target":34962
		},
		{
			"buffer":0,
			"byteLength":8040,
			"byteOffset":39180,
			"target":34963
		},
		{
			"buffer":0,
			"byteLength":12204,
			"byteOffset":47220,
			"target":34962
		},
		{
			"buffer":0,
			"byteLength":12204,
			"byteOffset":59424,
			"target":34962
		},
		{
			"buffer":0,
			"byteLength":8136,
			"byteOffset":71628,
			"target":34962
		},
		{
			"buffer":0,
			"byteLength":10728,
			"byteOffset":79764,
			"target":34963
		},
		{
			"buffer":0,
			"byteLength":26832,
			"byteOffset":90492,
			"target":34962
		},
		{
			"buffer":0,
			"byteLength":26832,
			"byteOffset":117324,
			"target":34962
		},
		{
			"buffer":0,
			"byteLength":17888,
			"byteOffset":144156,
			"target":34962
		},
		{
			"buffer":0,
			"byteLength":23040,
			"byteOffset":162044,
			"target":34963
		},
		{
			"buffer":0,
			"byteLength":432,
			"byteOffset":185084,
			"target":34962
		},
		{
			"buffer":0,
			"byteLength":432,
			"byteOffset":185516,
			"target":34962
		},
		{
			"buffer":0,
			"byteLength":288,
			"byteOffset":185948,
			"target":34962
		},
		{
			"buffer":0,
			"byteLength":408,
			"byteOffset":186236,
			"target":34963
		},
		{
			"buffer":0,
			"byteLength":432,
			"byteOffset":186644,
			"target":34962
		},
		{
			"buffer":0,
			"byteLength":432,
			"byteOffset":187076,
			"target":34962
		},
		{
			"buffer":0,
			"byteLength":288,
			"byteOffset":187508,
			"target":34962
		},
		{
			"buffer":0,
			"byteLength":9840,
			"byteOffset":187796,
			"target":34962
		},
		{
			"buffer":0,
			"byteLength":9840,
			"byteOffset":197636,
			"target":34962
		},
		{
			"buffer":0,
			"byteLength":6560,
			"byteOffset":207476,
			"target":34962
		},
		{
			"buffer":0,
			"byteLength":12204,
			"byteOffset":214036,
			"target":34962
		},
		{
			"buffer":0,
			"byteLength":12204,
			"byteOffset":226240,
			"target":34962
		},
		{
			"buffer":0,
			"byteLength":8136,
			"byteOffset":238444,
			"target":34962
		},
		{
			"buffer":0,
			"byteLength":312,
			"byteOffset":246580
		},
		{
			"buffer":0,
			"byteLength":936,
			"byteOffset":246892
		},
		{
			"buffer":0,
			"byteLength":1248,
			"byteOffset":247828
		},
		{
			"buffer":0,
			"byteLength":8,
			"byteOffset":249076
		},
		{
			"buffer":0,
			"byteLength":24,
			"byteOffset":249084
		},
		{
			"buffer":0,
			"byteLength":936,
			"byteOffset":249108
		},
		{
			"buffer":0,
			"byteLength":1248,
			"byteOffset":250044
		},
		{
			"buffer":0,
			"byteLength":24,
			"byteOffset":251292
		},
		{
			"buffer":0,
			"byteLength":936,
			"byteOffset":251316
		},
		{
			"buffer":0,
			"byteLength":1248,
			"byteOffset":252252
		},
		{
			"buffer":0,
			"byteLength":936,
			"byteOffset":253500
		},
		{
			"buffer":0,
			"byteLength":936,
			"byteOffset":254436
		},
		{
			"buffer":0,
			"byteLength":1248,
			"byteOffset":255372
		},
		{
			"buffer":0,
			"byteLength":24,
			"byteOffset":256620
		},
		{
			"buffer":0,
			"byteLength":936,
			"byteOffset":256644
		},
		{
			"buffer":0,
			"byteLength":1248,
			"byteOffset":257580
		},
		{
			"buffer":0,
			"byteLength":24,
			"byteOffset":258828
		},
		{
			"buffer":0,
			"byteLength":936,
			"byteOffset":258852
		},
		{
			"buffer":0,
			"byteLength":1248,
			"byteOffset":259788
		},
		{
			"buffer":0,
			"byteLength":24,
			"byteOffset":261036
		},
		{
			"buffer":0,
			"byteLength":936,
			"byteOffset":261060
		},
		{
			"buffer":0,
			"byteLength":1248,
			"byteOffset":261996
		},
		{
			"buffer":0,
			"byteLength":24,
			"byteOffset":263244
		},
		{
			"buffer":0,
			"byteLength":936,
			"byteOffset":263268
		},
		{
			"buffer":0,
			"byteLength":1248,
			"byteOffset":264204
		},
		{
			"buffer":0,
			"byteLength":936,
			"byteOffset":265452
		}
	],
	"buffers":[
		{
			"byteLength":266388,
			"uri":"ugokumomijimodoki.bin"
		}
	]
}
